<?xml version="1.0"?>
<svg xmlns="http://www.w3.org/2000/svg" xmlns:xlink="http://www.w3.org/1999/xlink" xmlns:svgjs="http://svgjs.com/svgjs" version="1.1" width="512" height="512" x="0" y="0" viewBox="0 0 448 448" style="enable-background:new 0 0 512 512" xml:space="preserve" class=""><g><path xmlns="http://www.w3.org/2000/svg" d="m442.016 3.5c-3.744-3.04-8.672-4.096-13.472-3.136l-288 64c-7.328 1.632-12.544 8.128-12.544 15.616v253.12c-13.408-8.128-29.92-13.12-48-13.12-44.096 0-80 28.704-80 64s35.904 64 80 64 80-28.704 80-64v-195.168l256-56.896v137.184c-13.408-8.128-29.92-13.12-48-13.12-44.128 0-80 28.704-80 64s35.872 64 80 64 80-28.704 80-64v-304c0-4.864-2.176-9.44-5.984-12.48z" fill="#ffffff" data-original="#000000" style="" class=""/><g xmlns="http://www.w3.org/2000/svg"/><g xmlns="http://www.w3.org/2000/svg"/><g xmlns="http://www.w3.org/2000/svg"/><g xmlns="http://www.w3.org/2000/svg"/><g xmlns="http://www.w3.org/2000/svg"/><g xmlns="http://www.w3.org/2000/svg"/><g xmlns="http://www.w3.org/2000/svg"/><g xmlns="http://www.w3.org/2000/svg"/><g xmlns="http://www.w3.org/2000/svg"/><g xmlns="http://www.w3.org/2000/svg"/><g xmlns="http://www.w3.org/2000/svg"/><g xmlns="http://www.w3.org/2000/svg"/><g xmlns="http://www.w3.org/2000/svg"/><g xmlns="http://www.w3.org/2000/svg"/><g xmlns="http://www.w3.org/2000/svg"/></g></svg>
